<svg xmlns="http://www.w3.org/2000/svg" xmlns:xlink="http://www.w3.org/1999/xlink" viewBox="0 0 920.38 764.07"><defs><style>.cls-1{font-size:200px;fill:#064c7d;font-family:Poppins-Bold, Poppins;font-weight:700;}.cls-2{fill:url(#linear-gradient);}.cls-3{fill:url(#linear-gradient-2);}.cls-4{fill:url(#linear-gradient-3);}.cls-5{fill:url(#linear-gradient-4);}.cls-6{fill:url(#linear-gradient-5);}</style><linearGradient id="linear-gradient" x1="444.57" y1="12.67" x2="244.95" y2="315.21" gradientUnits="userSpaceOnUse"><stop offset="0" stop-color="#16e1f5"/><stop offset="0.2" stop-color="#15daf5"/><stop offset="0.49" stop-color="#13c8f7"/><stop offset="0.83" stop-color="#0ea9f9"/><stop offset="1" stop-color="#0c97fa"/></linearGradient><linearGradient id="linear-gradient-2" x1="354.48" y1="247.75" x2="594.56" y2="166.34" gradientUnits="userSpaceOnUse"><stop offset="0" stop-color="#16e1f5"/><stop offset="0.23" stop-color="#14d5f6"/><stop offset="0.66" stop-color="#10b5f8"/><stop offset="1" stop-color="#0c97fa"/></linearGradient><linearGradient id="linear-gradient-3" x1="491.77" y1="345.43" x2="413.55" y2="272.15" gradientUnits="userSpaceOnUse"><stop offset="0" stop-color="#16e1f5"/><stop offset="0.25" stop-color="#16ddf5"/><stop offset="0.48" stop-color="#14d3f6"/><stop offset="0.69" stop-color="#12c1f7"/><stop offset="0.89" stop-color="#0ea7f9"/><stop offset="1" stop-color="#0c97fa"/></linearGradient><linearGradient id="linear-gradient-4" x1="654.08" y1="296.82" x2="373.91" y2="472.41" gradientUnits="userSpaceOnUse"><stop offset="0" stop-color="#16e1f5"/><stop offset="0.21" stop-color="#15dcf5"/><stop offset="0.47" stop-color="#13ccf6"/><stop offset="0.76" stop-color="#10b2f8"/><stop offset="1" stop-color="#0c97fa"/></linearGradient><linearGradient id="linear-gradient-5" x1="542.3" y1="411.72" x2="554.8" y2="444.42" gradientUnits="userSpaceOnUse"><stop offset="0" stop-color="#16e1f5"/><stop offset="0.24" stop-color="#15ddf5"/><stop offset="0.47" stop-color="#14d2f6"/><stop offset="0.69" stop-color="#11bff7"/><stop offset="0.91" stop-color="#0ea4f9"/><stop offset="1" stop-color="#0c97fa"/></linearGradient></defs><g id="Layer_2" data-name="Layer 2"><g id="Layer_1-2" data-name="Layer 1"><text class="cls-1" transform="translate(0 642.87)">E-Raport</text><path class="cls-2" d="M463.59,85.1a160.2,160.2,0,0,1-23.43,67.14A162.09,162.09,0,0,1,419,179.18c-.82.82-1.64,1.64-2.44,2.47a.57.57,0,0,0-.11.11,424.26,424.26,0,0,0-33.81,38.83Q374,231.95,366,243.87a412.73,412.73,0,0,0-59.63,139.56c-.5,2.25-1,4.5-1.44,6.77a.37.37,0,0,0,0,.15q-.2.81-.33,1.65l0,.09a30.34,30.34,0,0,0-.44,4.19l-.07-1.65-.28-7.89-5.64-157.27-1.58-44-.07-1.69-2.65-73.94-.95-26.44-.05-1.59c0-.11,0-.22,0-.32a32.12,32.12,0,0,1,14.57-26.81l.22-.14,1.25-.78A432.62,432.62,0,0,1,438.12,0,158.12,158.12,0,0,0,450,58.87,161.53,161.53,0,0,0,463.59,85.1Z"/><path class="cls-3" d="M587.13,159.81a162.52,162.52,0,0,1-74.33,79.68,165.68,165.68,0,0,1-15.28,7l-.07,0q-4,1.42-7.9,2.94l-.06,0h0A430.4,430.4,0,0,0,311.78,376.77l-.64.77-.07.09a31.89,31.89,0,0,0-6.13,12.57c.46-2.27.94-4.52,1.44-6.77A412.73,412.73,0,0,1,366,243.87q7.94-11.93,16.67-23.28a424.26,424.26,0,0,1,33.81-38.83.57.57,0,0,1,.11-.11c.82-.82,1.64-1.64,2.44-2.47a162.09,162.09,0,0,0,21.12-26.94A160.2,160.2,0,0,0,463.59,85.1a161.27,161.27,0,0,0,29.91,34.56A167.75,167.75,0,0,0,587.13,159.81Z"/><path class="cls-4" d="M621.55,225.33A429.09,429.09,0,0,0,462.83,358.28c-.08.12-.17.23-.25.34q-1.9,2.63-3.76,5.27l0,0a164,164,0,0,1-72.18,54.76,168.66,168.66,0,0,1-43.52,10.63l-.1,0q-2.81.3-5.61.5h-.05c-2.26.16-4.52.28-6.79.34-2-.89-4-1.83-6-2.76l0,0c-1.22-.57-2.44-1.15-3.65-1.74l0,0A32.29,32.29,0,0,1,304.29,401v0l-.17-4.6v-.07a30.34,30.34,0,0,1,.44-4.19l0-.09q.15-.83.33-1.65a.37.37,0,0,1,0-.15,31.89,31.89,0,0,1,6.13-12.57l.07-.09.64-.77A430.4,430.4,0,0,1,489.49,249.49h0l.06,0c2.22-.76,4.44-1.57,6.64-2.44.42-.16.84-.32,1.26-.5l.07,0a165.68,165.68,0,0,0,15.28-7c2.06,0,4.1,0,6.15-.07h0A439.42,439.42,0,0,0,621.55,225.33Z"/><path class="cls-5" d="M627.56,390.92V391a32.33,32.33,0,0,1-19.45,28.92l-.81.35a33.56,33.56,0,0,1-12.79,2.51,33,33,0,0,1-31.44-22.32l-50.64,56.24L511.3,458a33.22,33.22,0,0,1-10.25,7.32l-1.69.72-.19.07A33.64,33.64,0,0,1,487,468.33h-.7l-2.67-.15h-.08a438,438,0,0,1-74-11,431.84,431.84,0,0,1-79-27c2.27-.06,4.53-.18,6.79-.34h.05a34.42,34.42,0,0,0,5.61-.5l.1,0a168.66,168.66,0,0,0,43.52-10.63,164,164,0,0,0,72.18-54.76l0,0c1.3-1.74,2.54-3.48,3.76-5.27.08-.11.17-.22.25-.34A429.09,429.09,0,0,1,621.55,225.33h0l.05,0,5.83,162.28v0Z"/><path class="cls-6" d="M607.3,420.28,507,462.79l-5.9,2.5A33.22,33.22,0,0,0,511.3,458l1.13-1.26,50.64-56.24a33,33,0,0,0,31.44,22.32A33.56,33.56,0,0,0,607.3,420.28Z"/></g></g></svg>