<svg xmlns="http://www.w3.org/2000/svg" xmlns:xlink="http://www.w3.org/1999/xlink" viewBox="0 0 334.74 468.33"><defs><style>.cls-1{fill:url(#linear-gradient);}.cls-2{fill:url(#linear-gradient-2);}.cls-3{fill:url(#linear-gradient-3);}.cls-4{fill:url(#linear-gradient-4);}.cls-5{fill:url(#linear-gradient-5);}</style><linearGradient id="linear-gradient" x1="151.75" y1="12.67" x2="-47.87" y2="315.21" gradientUnits="userSpaceOnUse"><stop offset="0" stop-color="#16e1f5"/><stop offset="0.2" stop-color="#15daf5"/><stop offset="0.49" stop-color="#13c8f7"/><stop offset="0.83" stop-color="#0ea9f9"/><stop offset="1" stop-color="#0c97fa"/></linearGradient><linearGradient id="linear-gradient-2" x1="61.66" y1="247.75" x2="301.74" y2="166.34" gradientUnits="userSpaceOnUse"><stop offset="0" stop-color="#16e1f5"/><stop offset="0.23" stop-color="#14d5f6"/><stop offset="0.66" stop-color="#10b5f8"/><stop offset="1" stop-color="#0c97fa"/></linearGradient><linearGradient id="linear-gradient-3" x1="198.94" y1="345.43" x2="120.73" y2="272.15" gradientUnits="userSpaceOnUse"><stop offset="0" stop-color="#16e1f5"/><stop offset="0.25" stop-color="#16ddf5"/><stop offset="0.48" stop-color="#14d3f6"/><stop offset="0.69" stop-color="#12c1f7"/><stop offset="0.89" stop-color="#0ea7f9"/><stop offset="1" stop-color="#0c97fa"/></linearGradient><linearGradient id="linear-gradient-4" x1="361.25" y1="296.82" x2="81.09" y2="472.41" gradientUnits="userSpaceOnUse"><stop offset="0" stop-color="#16e1f5"/><stop offset="0.21" stop-color="#15dcf5"/><stop offset="0.47" stop-color="#13ccf6"/><stop offset="0.76" stop-color="#10b2f8"/><stop offset="1" stop-color="#0c97fa"/></linearGradient><linearGradient id="linear-gradient-5" x1="249.48" y1="411.72" x2="261.98" y2="444.42" gradientUnits="userSpaceOnUse"><stop offset="0" stop-color="#16e1f5"/><stop offset="0.24" stop-color="#15ddf5"/><stop offset="0.47" stop-color="#14d2f6"/><stop offset="0.69" stop-color="#11bff7"/><stop offset="0.91" stop-color="#0ea4f9"/><stop offset="1" stop-color="#0c97fa"/></linearGradient></defs><g id="Layer_2" data-name="Layer 2"><g id="Layer_1-2" data-name="Layer 1"><path class="cls-1" d="M170.76,85.1a160,160,0,0,1-23.42,67.14,162.09,162.09,0,0,1-21.12,26.94c-.82.82-1.64,1.64-2.44,2.47l-.12.11a424.15,424.15,0,0,0-33.8,38.83q-8.73,11.35-16.67,23.28A413,413,0,0,0,13.55,383.43c-.49,2.25-1,4.5-1.43,6.77a.37.37,0,0,0,0,.15q-.19.81-.33,1.65l0,.09a30.34,30.34,0,0,0-.44,4.19l-.07-1.65L11,386.74,5.31,229.47l-1.58-44-.07-1.69L1,109.81.06,83.37l0-1.59c0-.11,0-.22,0-.32A32.12,32.12,0,0,1,14.57,54.65c.07,0,.15-.09.21-.14L16,53.73A432.62,432.62,0,0,1,145.3,0a158.12,158.12,0,0,0,11.83,58.87A162.28,162.28,0,0,0,170.76,85.1Z"/><path class="cls-2" d="M294.31,159.81A162.49,162.49,0,0,1,220,239.49a164.29,164.29,0,0,1-15.27,7l-.07,0q-4,1.42-7.9,2.94l-.06,0h0A430.33,430.33,0,0,0,19,376.77l-.64.77-.07.09a31.89,31.89,0,0,0-6.13,12.57c.46-2.27.94-4.52,1.43-6.77A413,413,0,0,1,73.19,243.87q7.94-11.93,16.67-23.28a424.15,424.15,0,0,1,33.8-38.83l.12-.11c.82-.82,1.64-1.64,2.44-2.47a162.09,162.09,0,0,0,21.12-26.94A160,160,0,0,0,170.76,85.1a161.32,161.32,0,0,0,29.92,34.56A167.75,167.75,0,0,0,294.31,159.81Z"/><path class="cls-3" d="M328.73,225.33A429.12,429.12,0,0,0,170,358.28a4.15,4.15,0,0,1-.24.34c-1.27,1.75-2.53,3.51-3.76,5.27,0,0,0,0,0,0A164,164,0,0,1,93.8,418.68a168.63,168.63,0,0,1-43.53,10.63l-.09,0q-2.8.3-5.61.5h0c-2.26.16-4.53.28-6.79.34-2-.89-4-1.83-6-2.76l0,0c-1.22-.57-2.44-1.15-3.65-1.74l0,0A32.32,32.32,0,0,1,11.46,401v0l-.16-4.6v-.07a30.34,30.34,0,0,1,.44-4.19l0-.09q.15-.83.33-1.65a.37.37,0,0,1,0-.15,31.89,31.89,0,0,1,6.13-12.57l.07-.09.64-.77A430.33,430.33,0,0,1,196.67,249.49h0l.06,0q3.33-1.14,6.64-2.44c.42-.16.84-.32,1.26-.5l.07,0a164.29,164.29,0,0,0,15.27-7c2.07,0,4.11,0,6.16-.07h0A439.42,439.42,0,0,0,328.73,225.33Z"/><path class="cls-4" d="M334.74,390.92V391a32.33,32.33,0,0,1-19.45,28.92l-.82.35a33.47,33.47,0,0,1-12.78,2.51,33,33,0,0,1-31.44-22.32L219.6,456.71,218.47,458a33.06,33.06,0,0,1-10.24,7.32l-1.7.72-.18.07a33.64,33.64,0,0,1-12.13,2.25h-.7l-2.68-.15h-.07a438.24,438.24,0,0,1-74-11,432,432,0,0,1-79-27c2.26-.06,4.53-.18,6.79-.34h0a34.42,34.42,0,0,0,5.61-.5l.09,0A168.63,168.63,0,0,0,93.8,418.68,164,164,0,0,0,166,363.92s0,0,0,0c1.29-1.74,2.54-3.48,3.76-5.27a4.15,4.15,0,0,0,.24-.34A429.12,429.12,0,0,1,328.73,225.33h0l.05,0,5.82,162.28v0Z"/><path class="cls-5" d="M314.47,420.28,214.13,462.79l-5.9,2.5A33.06,33.06,0,0,0,218.47,458l1.13-1.26,50.65-56.24a33,33,0,0,0,31.44,22.32A33.47,33.47,0,0,0,314.47,420.28Z"/></g></g></svg>